<svg xmlns="http://www.w3.org/2000/svg" width="1600" height="1000" viewBox="0 0 1600 1000" fill="none">
<defs><linearGradient id="bg" x1="0" y1="0" x2="1600" y2="1000"><stop stop-color="#17131F"/><stop offset="1" stop-color="#08080B"/></linearGradient><linearGradient id="card" x1="0" y1="0" x2="1" y2="1"><stop stop-color="#2B2439"/><stop offset="1" stop-color="#17131E"/></linearGradient></defs>
<rect width="1600" height="1000" fill="url(#bg)"/><circle cx="1280" cy="190" r="360" fill="#8E6BFF" opacity=".22"/>
<rect x="70" y="55" width="1460" height="890" rx="34" fill="#111016" stroke="#383044"/>
<rect x="70" y="55" width="250" height="890" rx="34" fill="#15121B"/><text x="120" y="125" fill="#fff" font-size="34" font-family="Arial" font-weight="700">flowdesk</text>
<g fill="#777080" font-family="Arial" font-size="18"><text x="120" y="230">Overview</text><text x="120" y="285">Projects</text><text x="120" y="340">Clients</text><text x="120" y="395">Documents</text><text x="120" y="450">Team</text></g>
<rect x="104" y="194" width="185" height="56" rx="15" fill="#8E6BFF"/><text x="120" y="229" fill="#fff" font-size="18" font-family="Arial" font-weight="700">Overview</text>
<text x="380" y="135" fill="#fff" font-size="44" font-family="Arial" font-weight="700">Good morning, Ana.</text><text x="380" y="178" fill="#7D7688" font-size="19" font-family="Arial">Here is what is happening across your work today.</text>
<g><rect x="380" y="230" width="330" height="180" rx="24" fill="url(#card)"/><text x="415" y="285" fill="#918A9C" font-size="17" font-family="Arial">ACTIVE PROJECTS</text><text x="415" y="360" fill="#fff" font-size="66" font-family="Arial" font-weight="700">24</text><circle cx="655" cy="330" r="28" fill="#8E6BFF" opacity=".25"/><path d="M645 330h20M655 320v20" stroke="#AA91FF" stroke-width="4"/></g>
<g><rect x="735" y="230" width="330" height="180" rx="24" fill="url(#card)"/><text x="770" y="285" fill="#918A9C" font-size="17" font-family="Arial">TASK COMPLETION</text><text x="770" y="360" fill="#fff" font-size="66" font-family="Arial" font-weight="700">82%</text><path d="M981 348a44 44 0 1 0 0-36" stroke="#3C3547" stroke-width="12" stroke-linecap="round"/><path d="M981 348a44 44 0 0 0 10-63" stroke="#8E6BFF" stroke-width="12" stroke-linecap="round"/></g>
<g><rect x="1090" y="230" width="380" height="180" rx="24" fill="url(#card)"/><text x="1125" y="285" fill="#918A9C" font-size="17" font-family="Arial">THIS MONTH</text><text x="1125" y="360" fill="#fff" font-size="60" font-family="Arial" font-weight="700">€48.2k</text><path d="M1330 360c35-42 57-5 92-64" stroke="#68E4B1" stroke-width="5" fill="none"/></g>
<rect x="380" y="445" width="690" height="430" rx="24" fill="url(#card)"/><text x="420" y="505" fill="#fff" font-size="25" font-family="Arial" font-weight="700">Project performance</text><g stroke="#37313F"><path d="M420 580H1020"/><path d="M420 660H1020"/><path d="M420 740H1020"/><path d="M420 820H1020"/></g><path d="M430 790C520 728 570 750 650 660C710 590 790 690 850 600C905 520 940 610 1010 535" stroke="#8E6BFF" stroke-width="8" fill="none" stroke-linecap="round"/>
<rect x="1100" y="445" width="370" height="430" rx="24" fill="url(#card)"/><text x="1140" y="505" fill="#fff" font-size="25" font-family="Arial" font-weight="700">Team activity</text><g fill="#2D2735"><circle cx="1180" cy="590" r="28"/><circle cx="1180" cy="680" r="28"/><circle cx="1180" cy="770" r="28"/></g><g fill="#fff" font-family="Arial" font-size="18"><text x="1230" y="585">Website redesign</text><text x="1230" y="675">Client onboarding</text><text x="1230" y="765">Mobile prototype</text></g><g fill="#827A8D" font-family="Arial" font-size="14"><text x="1230" y="611">Updated 12 min ago</text><text x="1230" y="701">Updated 32 min ago</text><text x="1230" y="791">Updated 1 h ago</text></g>
</svg>
