<svg xmlns="http://www.w3.org/2000/svg" width="1600" height="1000" viewBox="0 0 1600 1000" fill="none">
<defs><linearGradient id="a" x1="0" y1="0" x2="1600" y2="1000"><stop stop-color="#E9F8F0"/><stop offset="1" stop-color="#BEDFCE"/></linearGradient><linearGradient id="p" x1="0" y1="0" x2="1" y2="1"><stop stop-color="#13201B"/><stop offset="1" stop-color="#07100C"/></linearGradient></defs>
<rect width="1600" height="1000" fill="url(#a)"/><circle cx="1435" cy="120" r="290" fill="#71D9AE" opacity=".45"/><circle cx="160" cy="900" r="330" fill="#FFF" opacity=".35"/>
<text x="110" y="120" fill="#102019" font-family="Arial" font-size="42" font-weight="700">table<tspan fill="#2F9D74">now</tspan></text>
<text x="110" y="320" fill="#102019" font-family="Arial" font-size="28" letter-spacing="4">BOOK. EAT. ENJOY.</text><text x="103" y="455" fill="#102019" font-family="Arial" font-size="110" font-weight="700">Your table,</text><text x="103" y="565" fill="#2F9D74" font-family="Arial" font-size="110" font-style="italic" font-weight="700">right now.</text>
<text x="110" y="645" fill="#40584E" font-family="Arial" font-size="23">Find a restaurant, choose a time and reserve in seconds.</text>
<rect x="110" y="705" width="250" height="72" rx="36" fill="#102019"/><text x="163" y="751" fill="#fff" font-family="Arial" font-size="20" font-weight="700">BOOK A TABLE</text>
<g transform="translate(980 90)"><rect width="360" height="790" rx="58" fill="#0C1712"/><rect x="14" y="14" width="332" height="762" rx="47" fill="url(#p)"/><rect x="118" y="22" width="124" height="28" rx="16" fill="#07100C"/><text x="42" y="110" fill="#fff" font-family="Arial" font-size="26" font-weight="700">Tonight near you</text><text x="42" y="146" fill="#778B82" font-family="Arial" font-size="14">12 restaurants available</text><rect x="38" y="185" width="284" height="190" rx="26" fill="#193027"/><circle cx="250" cy="255" r="72" fill="#4CB48A" opacity=".4"/><path d="M204 298c27-79 70-118 122-130-8 63-50 112-122 130Z" fill="#B9F0D8"/><text x="56" y="332" fill="#fff" font-family="Arial" font-size="21" font-weight="700">Luma Garden</text><text x="56" y="355" fill="#9AAEA5" font-family="Arial" font-size="13">Mediterranean • 0.8 km</text><text x="42" y="430" fill="#fff" font-family="Arial" font-size="18" font-weight="700">Select time</text><g fill="#182820" stroke="#315244"><rect x="42" y="460" width="78" height="48" rx="16"/><rect x="132" y="460" width="78" height="48" rx="16"/><rect x="222" y="460" width="78" height="48" rx="16"/></g><rect x="132" y="460" width="78" height="48" rx="16" fill="#68D3A7"/><g fill="#A4B9AF" font-family="Arial" font-size="13"><text x="57" y="490">19:00</text><text x="147" y="490" fill="#102019" font-weight="700">19:30</text><text x="237" y="490">20:00</text></g><text x="42" y="570" fill="#fff" font-family="Arial" font-size="18" font-weight="700">Guests</text><rect x="42" y="600" width="258" height="56" rx="18" fill="#14241C"/><text x="64" y="635" fill="#fff" font-family="Arial" font-size="15">2 guests</text><text x="270" y="635" fill="#68D3A7" font-family="Arial" font-size="20">⌄</text><rect x="42" y="690" width="258" height="58" rx="29" fill="#68D3A7"/><text x="108" y="727" fill="#102019" font-family="Arial" font-size="16" font-weight="700">CONFIRM BOOKING</text></g>
<g transform="translate(1270 370) rotate(7)"><rect width="230" height="505" rx="40" fill="#0B130F"/><rect x="10" y="10" width="210" height="485" rx="33" fill="#F3F7F4"/><rect x="75" y="16" width="80" height="19" rx="10" fill="#0B130F"/><circle cx="115" cy="158" r="58" fill="#C7E9DA"/><path d="M82 170c24-53 50-77 90-83-14 54-42 77-90 83Z" fill="#2F9D74"/><text x="48" y="250" fill="#102019" font-family="Arial" font-size="24" font-weight="700">Booked!</text><text x="46" y="282" fill="#557064" font-family="Arial" font-size="12">Your table is waiting.</text><rect x="28" y="325" width="174" height="82" rx="18" fill="#E4F1EB"/><text x="47" y="355" fill="#557064" font-family="Arial" font-size="11">LUMA GARDEN</text><text x="47" y="382" fill="#102019" font-family="Arial" font-size="14" font-weight="700">Today, 19:30 • 2 guests</text><rect x="35" y="440" width="160" height="40" rx="20" fill="#102019"/><text x="74" y="465" fill="#fff" font-family="Arial" font-size="11" font-weight="700">VIEW BOOKING</text></g>
</svg>
